<svg xmlns="http://www.w3.org/2000/svg" style="display:none" aria-hidden="true">
  <!-- The Tarot Almanac — Major Arcana + suit icon sprite. Use: <svg><use href="#ma-0"/></svg>
       Color via currentColor / CSS color property. All symbols on a 46x46 viewBox except ma-4 (50x50). -->
  <symbol id="ma-0" viewBox="0 0 46 46"><circle cx="23" cy="23" r="14" fill="none" stroke="currentColor" stroke-width="1.4"/><circle cx="23" cy="23" r="2.4" fill="currentColor"/></symbol>
  <symbol id="ma-1" viewBox="0 0 46 46"><line x1="23" y1="10" x2="23" y2="36" stroke="currentColor" stroke-width="1.4" stroke-linecap="round"/><circle cx="23" cy="7" r="2.2" fill="currentColor"/><circle cx="23" cy="39" r="2.2" fill="currentColor"/></symbol>
  <symbol id="ma-2" viewBox="0 0 46 46"><path d="M23 9 A14 14 0 0 0 23 37 A9 14 0 0 1 23 9 Z" fill="currentColor"/><path d="M23 9 A14 14 0 0 1 23 37 A9 14 0 0 0 23 9 Z" fill="none" stroke="currentColor" stroke-width="1.4"/></symbol>
  <symbol id="ma-3" viewBox="0 0 46 46"><path d="M23 38 C14 30 14 18 23 10 C32 18 32 30 23 38 Z" fill="none" stroke="currentColor" stroke-width="1.4"/><line x1="23" y1="20" x2="23" y2="34" stroke="currentColor" stroke-width="1.2"/></symbol>
  <symbol id="ma-4" viewBox="0 0 50 50"><path d="M25 11 L37 18 L37 32 L25 39 L13 32 L13 18 Z" fill="none" stroke="currentColor" stroke-width="1.5" stroke-linejoin="round"/><line x1="25" y1="11" x2="25" y2="39" stroke="currentColor" stroke-width="1.2"/></symbol>
  <symbol id="ma-5" viewBox="0 0 46 46"><line x1="23" y1="10" x2="23" y2="36" stroke="currentColor" stroke-width="1.4"/><line x1="16" y1="16" x2="30" y2="16" stroke="currentColor" stroke-width="1.4"/><line x1="17" y1="22" x2="29" y2="22" stroke="currentColor" stroke-width="1.4"/><line x1="18" y1="28" x2="28" y2="28" stroke="currentColor" stroke-width="1.4"/></symbol>
  <symbol id="ma-6" viewBox="0 0 46 46"><circle cx="17" cy="23" r="9" fill="none" stroke="currentColor" stroke-width="1.4"/><circle cx="29" cy="23" r="9" fill="none" stroke="currentColor" stroke-width="1.4"/></symbol>
  <symbol id="ma-7" viewBox="0 0 46 46"><path d="M23 11 L23 31 M23 11 L17 18 M23 11 L29 18" fill="none" stroke="currentColor" stroke-width="1.4" stroke-linecap="round"/><path d="M14 35 A12 12 0 0 1 32 35" fill="none" stroke="currentColor" stroke-width="1.4"/></symbol>
  <symbol id="ma-8" viewBox="0 0 46 46"><path d="M23 23 C19 17 12 17 12 23 C12 29 19 29 23 23 C27 17 34 17 34 23 C34 29 27 29 23 23 Z" fill="none" stroke="currentColor" stroke-width="1.5"/></symbol>
  <symbol id="ma-9" viewBox="0 0 46 46"><circle cx="23" cy="20" r="7" fill="none" stroke="currentColor" stroke-width="1.4"/><circle cx="23" cy="20" r="2" fill="currentColor"/><line x1="23" y1="27" x2="23" y2="36" stroke="currentColor" stroke-width="1.4" stroke-linecap="round"/></symbol>
  <symbol id="ma-10" viewBox="0 0 46 46"><circle cx="23" cy="23" r="13" fill="none" stroke="currentColor" stroke-width="1.4"/><line x1="23" y1="10" x2="23" y2="36" stroke="currentColor" stroke-width="1.1"/><line x1="10" y1="23" x2="36" y2="23" stroke="currentColor" stroke-width="1.1"/><line x1="14" y1="14" x2="32" y2="32" stroke="currentColor" stroke-width="1.1"/><line x1="32" y1="14" x2="14" y2="32" stroke="currentColor" stroke-width="1.1"/></symbol>
  <symbol id="ma-11" viewBox="0 0 46 46"><line x1="23" y1="11" x2="23" y2="33" stroke="currentColor" stroke-width="1.4" stroke-linecap="round"/><line x1="13" y1="16" x2="33" y2="16" stroke="currentColor" stroke-width="1.4" stroke-linecap="round"/><path d="M13 16 L10 23 L16 23 Z" fill="none" stroke="currentColor" stroke-width="1.2" stroke-linejoin="round"/><path d="M33 16 L30 23 L36 23 Z" fill="none" stroke="currentColor" stroke-width="1.2" stroke-linejoin="round"/><line x1="17" y1="33" x2="29" y2="33" stroke="currentColor" stroke-width="1.4" stroke-linecap="round"/></symbol>
  <symbol id="ma-12" viewBox="0 0 46 46"><line x1="12" y1="13" x2="34" y2="13" stroke="currentColor" stroke-width="1.4" stroke-linecap="round"/><line x1="27" y1="13" x2="27" y2="22" stroke="currentColor" stroke-width="1.2"/><circle cx="27" cy="28" r="6" fill="none" stroke="currentColor" stroke-width="1.4"/></symbol>
  <symbol id="ma-13" viewBox="0 0 46 46"><path d="M23 10 A13 13 0 0 1 23 36" fill="none" stroke="currentColor" stroke-width="1.5" stroke-linecap="round"/><path d="M23 10 A13 13 0 0 0 23 36" fill="none" stroke="currentColor" stroke-width="1.5" stroke-linecap="round" stroke-dasharray="2 4"/></symbol>
  <symbol id="ma-14" viewBox="0 0 46 46"><path d="M13 9 C15 18 21 19 23 26" fill="none" stroke="currentColor" stroke-width="1.5" stroke-linecap="round"/><path d="M33 9 C31 18 25 19 23 26" fill="none" stroke="currentColor" stroke-width="1.5" stroke-linecap="round"/><path d="M23 26 L23 33" stroke="currentColor" stroke-width="1.5" stroke-linecap="round"/><path d="M23 33 C20 36 20 40 23 41 C26 40 26 36 23 33 Z" fill="currentColor"/></symbol>
  <symbol id="ma-15" viewBox="0 0 46 46"><ellipse cx="23" cy="13" rx="4" ry="5.5" fill="none" stroke="currentColor" stroke-width="1.4"/><ellipse cx="23" cy="23" rx="4" ry="5.5" fill="none" stroke="currentColor" stroke-width="1.4"/><ellipse cx="23" cy="33" rx="4" ry="5.5" fill="none" stroke="currentColor" stroke-width="1.4"/></symbol>
  <symbol id="ma-16" viewBox="0 0 46 46"><path d="M30 6 L18 24 L26 24 L16 40" fill="none" stroke="currentColor" stroke-width="1.5" stroke-linecap="round" stroke-linejoin="round"/></symbol>
  <symbol id="ma-17" viewBox="0 0 46 46"><g stroke="currentColor" stroke-width="1.4" stroke-linecap="round"><line x1="23" y1="8" x2="23" y2="38"/><line x1="8" y1="23" x2="38" y2="23"/><line x1="12.5" y1="12.5" x2="33.5" y2="33.5"/><line x1="33.5" y1="12.5" x2="12.5" y2="33.5"/></g></symbol>
  <symbol id="ma-18" viewBox="0 0 46 46"><path d="M28 8 A15 15 0 1 0 28 38 A11 15 0 0 1 28 8 Z" fill="currentColor"/></symbol>
  <symbol id="ma-19" viewBox="0 0 46 46"><circle cx="23" cy="23" r="8.5" fill="none" stroke="currentColor" stroke-width="1.5"/><g stroke="currentColor" stroke-width="1.4" stroke-linecap="round"><line x1="23" y1="6" x2="23" y2="11"/><line x1="23" y1="35" x2="23" y2="40"/><line x1="6" y1="23" x2="11" y2="23"/><line x1="35" y1="23" x2="40" y2="23"/><line x1="11" y1="11" x2="14.5" y2="14.5"/><line x1="35" y1="35" x2="31.5" y2="31.5"/><line x1="11" y1="35" x2="14.5" y2="31.5"/><line x1="35" y1="11" x2="31.5" y2="14.5"/></g></symbol>
  <symbol id="ma-20" viewBox="0 0 46 46"><path d="M14 22 L23 10 L32 22 Z" fill="none" stroke="currentColor" stroke-width="1.4" stroke-linejoin="round"/><path d="M15 28 L31 28 M17 33 L29 33 M19 38 L27 38" fill="none" stroke="currentColor" stroke-width="1.3" stroke-linecap="round"/></symbol>
  <symbol id="ma-21" viewBox="0 0 46 46"><circle cx="23" cy="23" r="14" fill="none" stroke="currentColor" stroke-width="1.4"/><ellipse cx="23" cy="23" rx="6" ry="14" fill="none" stroke="currentColor" stroke-width="1.1"/><line x1="9" y1="23" x2="37" y2="23" stroke="currentColor" stroke-width="1.1"/></symbol>
  <!-- Suit icons (bold weight). Tint via element color: swords=air, cups=water, wands=fire, pentacles=earth. -->
  <symbol id="suit-swords" viewBox="0 0 44 44"><path d="M22 6 L24 11 L24 30 L20 30 L20 11 Z" fill="none" stroke="currentColor" stroke-width="2.2" stroke-linejoin="round"/><line x1="14" y1="30" x2="30" y2="30" stroke="currentColor" stroke-width="2.2" stroke-linecap="round"/><line x1="22" y1="30" x2="22" y2="37" stroke="currentColor" stroke-width="2.2" stroke-linecap="round"/></symbol>
  <symbol id="suit-cups" viewBox="0 0 44 44"><path d="M13 13 L31 13 L28 24 L16 24 Z" fill="none" stroke="currentColor" stroke-width="2.2" stroke-linejoin="round"/><line x1="22" y1="24" x2="22" y2="32" stroke="currentColor" stroke-width="2.2"/><line x1="16" y1="34" x2="28" y2="34" stroke="currentColor" stroke-width="2.2" stroke-linecap="round"/></symbol>
  <symbol id="suit-wands" viewBox="0 0 44 44"><line x1="22" y1="9" x2="22" y2="36" stroke="currentColor" stroke-width="2.6" stroke-linecap="round"/><path d="M22 9 C19 5 18 4 16 4 M22 9 C25 5 26 4 28 4 M22 13 C20 10 19 9 17 9" fill="none" stroke="currentColor" stroke-width="2.1" stroke-linecap="round"/></symbol>
  <symbol id="suit-pentacles" viewBox="0 0 44 44"><circle cx="22" cy="22" r="12" fill="none" stroke="currentColor" stroke-width="2.2"/><path d="M22 14 L24.2 19.8 L30.2 20 L25.4 23.8 L27.3 29.6 L22 26 L16.7 29.6 L18.6 23.8 L13.8 20 L19.8 19.8 Z" fill="none" stroke="currentColor" stroke-width="1.5" stroke-linejoin="round"/></symbol>
</svg>
